<svg xmlns="http://www.w3.org/2000/svg" id="flag-icons-ca-qc" viewBox="0 0 512 512">
  <path fill="#003da5" d="M0 0h512v512H0z"/>
  <path fill="#fff" d="M230 0h52v512h-52zM0 230h512v52H0zM115 16c13.2 5.5 17.6 22 15.4 38.5A98 98 0 0 1 115 90.8c-6.6-11-13.2-22-15.4-36.3-2.2-16.5 2.2-33 15.4-38.5m-2.2 74.8C104 82 90.8 82 75.4 93c-13.2 11-17.6 24.2-13.2 35.2 4.4 8.8 15.4 11 26.4 6.6s19.8-13.2 24.2-44m4.4 0c8.8-8.8 22-8.8 37.4 2.2 13.2 11 17.6 24.2 13.2 35.2-4.4 8.8-15.4 11-26.4 6.6s-19.8-13.2-24.2-44m-8.8 39.6c-4.4 8.8-2.2 23.1 6.6 23.1s11-14.3 6.6-23.1zM397 16c13.2 5.5 17.6 22 15.4 38.5A98 98 0 0 1 397 90.8c-6.6-11-13.2-22-15.4-36.3-2.2-16.5 2.2-33 15.4-38.5m-2.2 74.8c-8.8-8.8-22-8.8-37.4 2.2-13.2 11-17.6 24.2-13.2 35.2 4.4 8.8 15.4 11 26.4 6.6s19.8-13.2 24.2-44m4.4 0c8.8-8.8 22-8.8 37.4 2.2 13.2 11 17.6 24.2 13.2 35.2-4.4 8.8-15.4 11-26.4 6.6s-19.8-13.2-24.2-44m-8.8 39.6c-4.4 8.8-2.2 23.1 6.6 23.1s11-14.3 6.6-23.1zM115 298c13.2 5.5 17.6 22 15.4 38.5a98 98 0 0 1-15.4 36.3c-6.6-11-13.2-22-15.4-36.3-2.2-16.5 2.2-33 15.4-38.5m-2.2 74.8c-8.8-8.8-22-8.8-37.4 2.2-13.2 11-17.6 24.2-13.2 35.2 4.4 8.8 15.4 11 26.4 6.6s19.8-13.2 24.2-44m4.4 0c8.8-8.8 22-8.8 37.4 2.2 13.2 11 17.6 24.2 13.2 35.2-4.4 8.8-15.4 11-26.4 6.6s-19.8-13.2-24.2-44m-8.8 39.6c-4.4 8.8-2.2 23.1 6.6 23.1s11-14.3 6.6-23.1zM397 298c13.2 5.5 17.6 22 15.4 38.5a98 98 0 0 1-15.4 36.3c-6.6-11-13.2-22-15.4-36.3-2.2-16.5 2.2-33 15.4-38.5m-2.2 74.8c-8.8-8.8-22-8.8-37.4 2.2-13.2 11-17.6 24.2-13.2 35.2 4.4 8.8 15.4 11 26.4 6.6s19.8-13.2 24.2-44m4.4 0c8.8-8.8 22-8.8 37.4 2.2 13.2 11 17.6 24.2 13.2 35.2-4.4 8.8-15.4 11-26.4 6.6s-19.8-13.2-24.2-44m-8.8 39.6c-4.4 8.8-2.2 23.1 6.6 23.1s11-14.3 6.6-23.1z"/>
</svg>
