<svg xmlns="http://www.w3.org/2000/svg" id="flag-icons-ca-qc" viewBox="0 0 640 480">
  <path fill="#003da5" d="M0 0h640v480H0z"/>
  <path fill="#fff" d="M294 0h52v480h-52zM0 214h640v52H0zM147 17c12 5 16 20 14 35-2 13-8 23-14 33-6-10-12-20-14-33-2-15 2-30 14-35m-2 68c-8-8-20-8-34 2-12 10-16 22-12 32 4 8 14 10 24 6s18-12 22-40m4 0c8-8 20-8 34 2 12 10 16 22 12 32-4 8-14 10-24 6s-18-12-22-40m-8 36c-4 8-2 21 6 21s10-13 6-21zM493 17c12 5 16 20 14 35-2 13-8 23-14 33-6-10-12-20-14-33-2-15 2-30 14-35m-2 68c-8-8-20-8-34 2-12 10-16 22-12 32 4 8 14 10 24 6s18-12 22-40m4 0c8-8 20-8 34 2 12 10 16 22 12 32-4 8-14 10-24 6s-18-12-22-40m-8 36c-4 8-2 21 6 21s10-13 6-21zM147 283c12 5 16 20 14 35-2 13-8 23-14 33-6-10-12-20-14-33-2-15 2-30 14-35m-2 68c-8-8-20-8-34 2-12 10-16 22-12 32 4 8 14 10 24 6s18-12 22-40m4 0c8-8 20-8 34 2 12 10 16 22 12 32-4 8-14 10-24 6s-18-12-22-40m-8 36c-4 8-2 21 6 21s10-13 6-21zM493 283c12 5 16 20 14 35-2 13-8 23-14 33-6-10-12-20-14-33-2-15 2-30 14-35m-2 68c-8-8-20-8-34 2-12 10-16 22-12 32 4 8 14 10 24 6s18-12 22-40m4 0c8-8 20-8 34 2 12 10 16 22 12 32-4 8-14 10-24 6s-18-12-22-40m-8 36c-4 8-2 21 6 21s10-13 6-21z"/>
</svg>
